<?xml version="1.0" encoding="UTF-8"?>
<!DOCTYPE svg PUBLIC "-//W3C//DTD SVG 1.1//EN" "http://www.w3.org/Graphics/SVG/1.1/DTD/svg11.dtd">
<svg xmlns="http://www.w3.org/2000/svg" version="1.1" width="512px" height="512px" style="shape-rendering:geometricPrecision; text-rendering:geometricPrecision; image-rendering:optimizeQuality; fill-rule:evenodd; clip-rule:evenodd" xmlns:xlink="http://www.w3.org/1999/xlink">
<g><path style="opacity:0.933" fill="#000000" d="M 90.5,82.5 C 95.1209,81.9927 99.4542,82.826 103.5,85C 154.014,135.68 204.68,186.18 255.5,236.5C 306.32,186.18 356.986,135.68 407.5,85C 414.042,81.3204 420.209,81.8204 426,86.5C 429.333,92.1667 429.333,97.8333 426,103.5C 375.32,154.014 324.82,204.68 274.5,255.5C 324.82,306.32 375.32,356.986 426,407.5C 429.91,414.646 429.077,421.146 423.5,427C 418.013,429.185 412.68,428.851 407.5,426C 356.986,375.32 306.32,324.82 255.5,274.5C 204.68,324.82 154.014,375.32 103.5,426C 91.7983,431.981 84.7983,428.647 82.5,416C 82.3291,412.871 83.1624,410.037 85,407.5C 135.68,356.986 186.18,306.32 236.5,255.5C 186.18,204.68 135.68,154.014 85,103.5C 80.3212,94.5957 82.1545,87.5957 90.5,82.5 Z"/></g>
</svg>
