<?xml version="1.0" encoding="UTF-8"?>
<!DOCTYPE svg PUBLIC "-//W3C//DTD SVG 1.1//EN" "http://www.w3.org/Graphics/SVG/1.1/DTD/svg11.dtd">
<svg xmlns="http://www.w3.org/2000/svg" version="1.1" width="512px" height="512px" style="shape-rendering:geometricPrecision; text-rendering:geometricPrecision; image-rendering:optimizeQuality; fill-rule:evenodd; clip-rule:evenodd" xmlns:xlink="http://www.w3.org/1999/xlink">
<g><path style="opacity:0.969" fill="#000000" d="M 190.5,41.5 C 251.168,41.3333 311.834,41.5 372.5,42C 418.152,46.6505 448.985,70.4838 465,113.5C 467.307,121.676 468.64,130.009 469,138.5C 469.971,201.857 469.637,265.191 468,328.5C 461.834,352.004 447.667,368.838 425.5,379C 418.722,381.612 411.722,383.112 404.5,383.5C 404.168,372.48 404.501,361.48 405.5,350.5C 423.113,346.387 433.279,335.387 436,317.5C 436.667,257.167 436.667,196.833 436,136.5C 430.167,101.333 409.667,80.8333 374.5,75C 314.167,74.3333 253.833,74.3333 193.5,75C 175.613,77.7207 164.613,87.8874 160.5,105.5C 149.52,106.499 138.52,106.832 127.5,106.5C 132.65,69.3519 153.65,47.6852 190.5,41.5 Z"/></g>
<g><path style="opacity:0.98" fill="#000000" d="M 99.5,127.5 C 175.167,127.333 250.834,127.5 326.5,128C 351.145,133.309 368.645,147.476 379,170.5C 380.644,175.077 381.978,179.744 383,184.5C 383.667,260.167 383.667,335.833 383,411.5C 375.241,444.927 354.408,464.094 320.5,469C 248.5,469.667 176.5,469.667 104.5,469C 77.657,465.149 58.4903,450.983 47,426.5C 44.7058,419.99 43.0392,413.323 42,406.5C 41.3333,334.5 41.3333,262.5 42,190.5C 47.092,156.578 66.2587,135.578 99.5,127.5 Z M 111.5,159.5 C 179.167,159.333 246.834,159.5 314.5,160C 336.667,162.167 348.833,174.333 351,196.5C 351.667,264.167 351.667,331.833 351,399.5C 349.053,420.779 337.553,432.945 316.5,436C 247.5,436.667 178.5,436.667 109.5,436C 88.6667,433.833 77.1667,422.333 75,401.5C 74.3333,332.5 74.3333,263.5 75,194.5C 78.2283,173.437 90.3949,161.771 111.5,159.5 Z"/></g>
</svg>
